<svg version="1" xmlns="http://www.w3.org/2000/svg" width="346.667" height="346.667" viewBox="0 0 260.000000 260.000000"><path d="M116 1.1C94.7 3.4 70.1 13.2 53.2 26.2 45.5 32.1 35 42 35 43.3c0 .6 2.8-1.5 6.2-4.8 5.6-5.4 5.4-5.2-1.4 2.2-17.9 19.4-27.7 38-32.9 62.5-3.2 14.7-3.2 38.9 0 53.8 5.2 24.2 15.8 43.9 34.1 63.5 5.1 5.5 4.8 6.2-.5 1-.5-.6-2.2-1.9-3.6-3s1.1 1.5 5.5 5.9c16.8 16.2 37.5 27.1 62.1 32.6 13 2.9 36.5 3.2 49.9.6 54.2-10.6 94.7-52.1 104.2-106.9 2.4-13.7 1.5-37.8-2-51.2-8.8-34.5-28.2-61.2-58.1-80C174.6 4.5 145-2.1 116 1.1zM153.8 6c.1 0 .2.5.2 1.1 0 .8-2.3 1-7.9.5-10.2-.9-12.9-.3-12.3 3 .4 2.3.3 2.4-5.9 2.5-3.5 0-9.4.3-13.1.7-5.4.6-6.5.5-5.6-.5.5-.7.8-1.9.5-2.7-.4-1 1.9-1.7 10.1-3.1 5.9-.9 11.4-1.8 12.2-2 1.1-.3 20.1.1 21.8.5zM149 16c3.2.9 3.1.9-1.4.5-2.7-.3-7.7-.5-11.2-.5-4.1 0-6.4-.4-6.4-1.1 0-1.3 12.9-.5 19 1.1zM52 29.3c0 .2-1 1.2-2.2 2.3l-2.3 1.9 1.9-2.3c1.8-2.1 2.6-2.7 2.6-1.9zm101.7 4c.4.3 2.6.8 4.8 1.1 5.1.8 7.1 1.4 12 3.3 10.4 4 17.5 7.5 17.5 8.5 0 .5.9.8 1.9.8 1.1 0 2.7.8 3.7 1.7 1 1 2.2 1.8 2.6 1.8 1.5 0 15.7 13.6 21.3 20.5 5.4 6.7 13.1 20.1 16 28 .9 2.5 2 5.4 2.5 6.5 1.2 3.2 2.9 11.4 4.1 20.8 1.6 12-.7 30.3-5.5 44.2-.5 1.4-.2 1.2.9-.5l1.6-2.5-.7 2.5c-2.1 8.2-14.6 29.6-16.6 28.4-.7-.5-.8-.3-.3.5.8 1.3-3.3 6.4-4.5 5.6-.4-.2-2.4 1.5-4.6 3.8l-3.9 4.2 3.8-3.4c4.6-4.3 5-2.7.4 1.7-2.4 2.3-3.9 3.1-5.3 2.6-1.4-.4-1.5-.3-.6.4 1.1.7.3 1.8-3.2 4.6-2.6 2.2-5 3.5-5.7 3-.8-.4-.9-.3-.5.4s-.9 2.1-3.2 3.5c-6.3 4.1-16.2 8.8-17.1 8.2-.5-.2-3.5.4-6.7 1.4-18.1 5.6-31.5 6.2-55.9 2.5-2.2-.4-4.4-1-5-1.3-.5-.4-3.7-1.6-7-2.7-3.3-1-6.2-2.1-6.5-2.5-.3-.3-2.1-1.1-4-1.9-1.9-.8-4.9-2.4-6.6-3.7-1.7-1.3-3.5-2.3-4.1-2.3-1.6 0-22.1-18.8-22.8-21-.3-1.1-1.2-2-2-2-.7 0-1.7-1.3-2.3-2.8-.5-1.6-1.7-3.5-2.5-4.4-3.6-3.5-10.8-20.5-13.6-31.8-2.7-10.6-2.9-12.9-2.7-27 .2-10.8.8-17 1.9-20.5.8-2.8 2.4-7.7 3.3-11 1.8-6.2 8.4-19.8 11-22.6.8-.8 1.4-1.9 1.4-2.4 0-2.7 20.1-23.4 25-25.8.8-.4 3.5-2.1 6-3.7 4.3-2.8 8.5-5 17.5-9.1 3.9-1.8 17.9-5.3 24-6.1 4-.6 29.2-.1 30.2.5zM50.5 229c1 1.1 1.6 2 1.3 2-.3 0-1.3-.9-2.3-2-1-1.1-1.6-2-1.3-2 .3 0 1.3.9 2.3 2zm8.6 6.7c1.3 1.6 1.2 1.7-.3.4-1.7-1.3-2.2-2.1-1.4-2.1.2 0 1 .8 1.7 1.7zm90.5 8.3c-4.9 1.5-16.3 2.3-19.3 1.4-2.3-.7-1.7-.9 4.2-1.4 3.9-.4 9.5-.7 12.5-.7 4.6-.1 5 0 2.6.7zm-25.8 2.6c10.1.6 10.4.7 10 2.9-.4 1.9 0 2.4 2.6 2.8 1.7.3 6.1.2 9.7 0 4.4-.4 6.9-.2 7.3.6.4.6 0 1.1-1.1 1.2-13.8.7-18.2.5-26.3-.7-17.3-2.6-16.8-2.4-16.2-4.6.3-1.1-.1-2.4-.9-3-1-.6-.5-.8 1.6-.4 1.7.3 7.7.8 13.3 1.2z"/><path d="M109.5 50.2C108.9 52.1 83 200.7 83 202.4c0 1.4 1.8 1.6 12 1.6 6.6 0 12-.3 12-.8 0-.4 1.9-11.6 4.2-24.8l4.1-24.1 16.1-.5c18.3-.5 22.9-1.9 28.7-8.6 6.3-7.2 8.5-14 13.5-41.7 6.4-35.5 6.3-42.6-.8-49.2-5.2-4.9-7.9-5.3-36.3-5.3-20.4 0-26.7.3-27 1.2zm41.7 22.5c1.2 1.1 1.8 3 1.8 5.8 0 4.7-6.4 42.1-8.1 47.3-1.8 5.5-5.8 7.2-16.7 7.2-9.1 0-9.2 0-8.7-2.3.2-1.2 2.5-13.9 5-28.2 2.5-14.3 4.8-27.2 5.1-28.8l.6-2.7h9.6c7.5 0 9.9.4 11.4 1.7z"/><path d="M139.2 158.3l-10.3 1 .7 20.1c.4 11.1 1 21.1 1.3 22.4.6 2.2 1 2.3 11.6 2.4h11l-.2-7.8c-.4-22.8-1.6-39.4-2.7-39.2-.6.1-5.7.6-11.4 1.1zM232.6 174.5c-.9 2.6-.7 3.2.5 1.2.6-1 .9-2.1.6-2.3-.2-.3-.7.2-1.1 1.1zM178.5 231c-.3.6.1.7.9.4 1.8-.7 2.1-1.4.7-1.4-.6 0-1.3.4-1.6 1zM30.9 47.7l-2.4 2.8 2.8-2.4c2.5-2.3 3.2-3.1 2.4-3.1-.2 0-1.4 1.2-2.8 2.7zM26 206.4c0 .2.8 1 1.8 1.7 1.5 1.3 1.6 1.2.3-.4s-2.1-2.1-2.1-1.3zM30.6 212.2c1 1.4 2.1 2.4 2.3 2.2.3-.3-.6-1.5-1.8-2.7l-2.4-2.2 1.9 2.7z"/></svg>