<svg xmlns="http://www.w3.org/2000/svg" viewBox="0 0 157.17 88.96"><defs><style>.cls-1{fill:white;}.cls-2{fill:#72ae25;}</style></defs><g id="Ebene_2" data-name="Ebene 2"><g id="Ebene_1-2" data-name="Ebene 1"><polygon class="cls-1" points="91.35 34.05 0.31 34.05 0.31 31.03 90.91 31.03 91.35 34.05"/><polygon class="cls-1" points="156.86 34.05 122.64 34.05 123.08 31.03 156.86 31.03 156.86 34.05"/><polygon class="cls-2" points="112.06 22.36 107 7.64 101.93 22.36 88.99 0 93.93 34.11 107 34.11 120.06 34.11 125 0 112.06 22.36"/><path class="cls-1" d="M38.31,43.57a2.37,2.37,0,0,1-2.4-2.25,2.38,2.38,0,0,1,4.76,0,2.35,2.35,0,0,1-2.36,2.2m7,0A2.35,2.35,0,0,1,43,41.37a2.39,2.39,0,1,1,2.36,2.2M41.87,50.7C38.8,50.7,38.23,54,38.23,60s.57,9.3,3.64,9.3,3.64-3.45,3.64-9.3S45,50.7,41.87,50.7m0,23.55c-8.86,0-10-8.67-10-14.23,0-5.3,1-14.26,10-14.26,8.78,0,10,8.5,10,14.26,0,5.06-.91,14.23-10,14.23"/><path class="cls-1" d="M62.38,50.65v6.68h1.94c1.66,0,4.43,0,4.43-3.44,0-3.24-2.77-3.24-4-3.24H62.38m0,11.16v7.26h3c2.61,0,4.14-.91,4.14-3.65,0-3.61-2.81-3.61-4.18-3.61H62.38m3.55,12h-9.4V46.18h9.4c2.73,0,5.85,0,7.54,2.36a8.34,8.34,0,0,1,1.45,4.93c0,4.44-2.65,5.44-3.93,5.93a5.94,5.94,0,0,1,2.77,1.71,7.25,7.25,0,0,1,1.91,5c0,2.41-1,5.19-3,6.38s-4.22,1.29-6.71,1.29"/><polygon class="cls-1" points="99.68 73.83 93.43 73.83 88.54 61.11 86.27 64.46 86.27 73.83 80.23 73.83 80.23 46.18 86.27 46.18 86.27 57.7 92.98 46.18 99.11 46.18 92.19 56.33 99.68 73.83"/><rect class="cls-1" x="103.33" y="46.18" width="6.04" height="27.65"/><polygon class="cls-1" points="133.31 73.83 127.89 73.83 119.48 53.8 119.48 73.83 114.76 73.83 114.76 46.18 121.51 46.18 128.59 63.34 128.59 46.18 133.31 46.18 133.31 73.83"/><path class="cls-1" d="M147.1,74.25c-6.87,0-10.22-6.14-10.22-13.77,0-4.1.91-14.71,10.77-14.71,7.66,0,9,5.47,9.52,9.44l-5.47.92c-.28-2.07-.71-5.43-3.93-5.43-3.44,0-4.51,3.73-4.51,9.41,0,5,.74,9.21,4.72,9.21,3.51,0,3.64-3.69,3.72-5.48h-4.14V59.08h9.61V73.83H154.6l-.79-3.15a7.38,7.38,0,0,1-6.71,3.57"/><polygon class="cls-1" points="24.07 73.83 18.68 73.83 15.02 54.71 11.28 73.83 5.92 73.83 0 46.18 6.13 46.18 9.02 65.22 12.64 46.18 18.15 46.18 21.53 65.26 24.91 46.18 29.96 46.18 24.07 73.83"/><path class="cls-1" d="M.93,82.31v4a3.28,3.28,0,0,0,.13,1,1.6,1.6,0,0,0,.38.65,1.42,1.42,0,0,0,.6.37,2.86,2.86,0,0,0,.8.11,2.91,2.91,0,0,0,.82-.11,1.42,1.42,0,0,0,.6-.37,1.6,1.6,0,0,0,.38-.65,3.3,3.3,0,0,0,.12-1v-4h.63v4.17a3,3,0,0,1-.15,1,2,2,0,0,1-.44.79,2.26,2.26,0,0,1-.79.54A3.12,3.12,0,0,1,2.84,89a3,3,0,0,1-1.15-.19,2.26,2.26,0,0,1-.79-.54,2.2,2.2,0,0,1-.45-.79,3.32,3.32,0,0,1-.14-1V82.31Zm.8-1.6h.62v.92H1.73Zm1.62,0H4v.92H3.35Z"/><path class="cls-1" d="M10.77,82.31a4,4,0,0,1,.79.07,1.75,1.75,0,0,1,.67.27,1.35,1.35,0,0,1,.46.49,1.51,1.51,0,0,1,.18.77,1.37,1.37,0,0,1-.09.49,1.32,1.32,0,0,1-.23.44,1.46,1.46,0,0,1-.36.34,1.35,1.35,0,0,1-.46.19v0a1.52,1.52,0,0,1,1,.51A1.59,1.59,0,0,1,13.11,87c0,.1,0,.22,0,.35a2,2,0,0,1-.11.4,1.91,1.91,0,0,1-.24.41,1.35,1.35,0,0,1-.42.35,2.59,2.59,0,0,1-.64.25,3.94,3.94,0,0,1-.91.09H8V82.31Zm0,2.86a2.08,2.08,0,0,0,.65-.09,1.43,1.43,0,0,0,.46-.24.92.92,0,0,0,.27-.35,1,1,0,0,0,.09-.43c0-.82-.49-1.22-1.47-1.22H8.63v2.33Zm0,3.13a3.52,3.52,0,0,0,.66-.06A1.4,1.4,0,0,0,12,88a1,1,0,0,0,.37-.42,1.28,1.28,0,0,0,.14-.65,1.1,1.1,0,0,0-.44-.95,2.2,2.2,0,0,0-1.28-.31H8.63v2.6Z"/><path class="cls-1" d="M20,82.31v.53H16.1V85.2h3.64v.53H16.1V88.3H20v.53H15.48V82.31Z"/><path class="cls-1" d="M25.27,82.31a2.68,2.68,0,0,1,.76.1,1.67,1.67,0,0,1,.63.3,1.6,1.6,0,0,1,.43.53,1.68,1.68,0,0,1,.16.77,1.88,1.88,0,0,1-.32,1.08,1.44,1.44,0,0,1-.95.58v0a1.5,1.5,0,0,1,.53.17,1.13,1.13,0,0,1,.34.31,1.32,1.32,0,0,1,.2.45,2.94,2.94,0,0,1,.07.54c0,.11,0,.24,0,.4s0,.32,0,.48a2.88,2.88,0,0,0,.09.46.68.68,0,0,0,.16.33h-.69a.63.63,0,0,1-.09-.22,2.51,2.51,0,0,1,0-.27l0-.28c0-.09,0-.17,0-.24l-.06-.69a1.89,1.89,0,0,0-.18-.61,1.08,1.08,0,0,0-.38-.44,1.11,1.11,0,0,0-.69-.14H22.9v2.89h-.62V82.31Zm-.05,3.1a1.61,1.61,0,0,0,.54-.09,1.41,1.41,0,0,0,.45-.25,1.35,1.35,0,0,0,.31-.4,1.43,1.43,0,0,0-.24-1.49,1.44,1.44,0,0,0-1.06-.34H22.9v2.57Z"/><path class="cls-1" d="M34.57,83.63a1.37,1.37,0,0,0,.53-.15,1,1,0,0,0,.38-.37,1.71,1.71,0,0,0,.21-.68h.47v6.4h-.58V84.08H33.89v-.41Z"/><path class="cls-1" d="M43.14,82.68a2.16,2.16,0,0,1,.68.79,3.46,3.46,0,0,1,.33,1.06,8.23,8.23,0,0,1,0,2.29,3.46,3.46,0,0,1-.33,1.06,2.05,2.05,0,0,1-.68.78,2.3,2.3,0,0,1-2.27,0,2.05,2.05,0,0,1-.68-.78,3.21,3.21,0,0,1-.33-1.06,7.33,7.33,0,0,1,0-2.29,3.21,3.21,0,0,1,.33-1.06,2.16,2.16,0,0,1,.68-.79,2.3,2.3,0,0,1,2.27,0Zm-2,.47a1.74,1.74,0,0,0-.49.7,3.36,3.36,0,0,0-.23.92,7.28,7.28,0,0,0,0,.9,7.44,7.44,0,0,0,0,.91,3.45,3.45,0,0,0,.23.92,1.74,1.74,0,0,0,.49.7,1.31,1.31,0,0,0,.88.29,1.3,1.3,0,0,0,.88-.29,1.77,1.77,0,0,0,.5-.7,3.44,3.44,0,0,0,.22-.92,7.56,7.56,0,0,0,.06-.91,7.41,7.41,0,0,0-.06-.9,3.35,3.35,0,0,0-.22-.92,1.77,1.77,0,0,0-.5-.7,1.3,1.3,0,0,0-.88-.29A1.31,1.31,0,0,0,41.12,83.15Z"/><path class="cls-1" d="M49.6,82.68a2.13,2.13,0,0,1,.67.79,3.46,3.46,0,0,1,.33,1.06,7.33,7.33,0,0,1,0,2.29,3.46,3.46,0,0,1-.33,1.06,2,2,0,0,1-.67.78,2,2,0,0,1-1.14.3,2,2,0,0,1-1.14-.3,2.05,2.05,0,0,1-.68-.78,3.46,3.46,0,0,1-.33-1.06,8.23,8.23,0,0,1,0-2.29,3.46,3.46,0,0,1,.33-1.06,2.16,2.16,0,0,1,.68-.79,2,2,0,0,1,1.14-.3A2,2,0,0,1,49.6,82.68Zm-2,.47a1.77,1.77,0,0,0-.5.7,3.35,3.35,0,0,0-.22.92,7.41,7.41,0,0,0-.06.9,7.56,7.56,0,0,0,.06.91,3.44,3.44,0,0,0,.22.92,1.77,1.77,0,0,0,.5.7,1.3,1.3,0,0,0,.88.29,1.31,1.31,0,0,0,.88-.29,1.74,1.74,0,0,0,.49-.7,3.45,3.45,0,0,0,.23-.92c0-.33,0-.63,0-.91s0-.58,0-.9a3.36,3.36,0,0,0-.23-.92,1.74,1.74,0,0,0-.49-.7,1.31,1.31,0,0,0-.88-.29A1.3,1.3,0,0,0,47.58,83.15Z"/><path class="cls-1" d="M60.2,82.31V87a3.15,3.15,0,0,1-.1.87,1.44,1.44,0,0,1-.33.61,1.35,1.35,0,0,1-.58.35,2.86,2.86,0,0,1-.89.12,2.07,2.07,0,0,1-.92-.18,1.48,1.48,0,0,1-.55-.5,1.79,1.79,0,0,1-.28-.71,4.5,4.5,0,0,1-.07-.83h.62c0,.14,0,.31,0,.5a1.53,1.53,0,0,0,.13.56,1,1,0,0,0,.36.45,1.16,1.16,0,0,0,.73.19,1.75,1.75,0,0,0,.61-.09.86.86,0,0,0,.37-.31,1.23,1.23,0,0,0,.19-.52,4.3,4.3,0,0,0,.06-.77V82.31Z"/><path class="cls-1" d="M65.49,82.31l2.56,6.52h-.66l-.8-2h-3l-.79,2h-.66l2.63-6.52Zm.89,4-1.26-3.34-1.31,3.34Z"/><path class="cls-1" d="M70.64,82.31v2.83h3.88V82.31h.62v6.52h-.62V85.67H70.64v3.16H70V82.31Z"/><path class="cls-1" d="M80.82,82.31a2.68,2.68,0,0,1,.76.1,1.65,1.65,0,0,1,.64.3,1.6,1.6,0,0,1,.43.53,1.82,1.82,0,0,1,.16.77,1.88,1.88,0,0,1-.32,1.08,1.49,1.49,0,0,1-1,.58v0a1.44,1.44,0,0,1,.53.17,1.17,1.17,0,0,1,.35.31,1.3,1.3,0,0,1,.19.45,2.92,2.92,0,0,1,.08.54c0,.11,0,.24,0,.4a3.87,3.87,0,0,0,0,.48,2.88,2.88,0,0,0,.09.46.78.78,0,0,0,.16.33h-.69a.93.93,0,0,1-.08-.22,1.28,1.28,0,0,1,0-.27c0-.1,0-.19,0-.28s0-.17,0-.24q0-.34-.06-.69a2.18,2.18,0,0,0-.17-.61,1,1,0,0,0-1.08-.58H78.45v2.89h-.62V82.31Zm0,3.1a1.6,1.6,0,0,0,.53-.09,1.31,1.31,0,0,0,.45-.25,1.35,1.35,0,0,0,.31-.4,1.16,1.16,0,0,0,.11-.54,1.29,1.29,0,0,0-.34-.95,1.47,1.47,0,0,0-1.06-.34H78.45v2.57Z"/><path class="cls-1" d="M89.81,82.31v.53H85.92V85.2h3.64v.53H85.92V88.3h3.94v.53H85.3V82.31Z"/><path class="cls-2" d="M96.14,84.93a1.5,1.5,0,0,1,.35-.51,1.54,1.54,0,0,1,.51-.35,1.7,1.7,0,0,1,.64-.13,1.65,1.65,0,0,1,.63.13,1.59,1.59,0,0,1,.52.35,1.66,1.66,0,0,1,.36,1.79,1.86,1.86,0,0,1-.36.52,1.59,1.59,0,0,1-.52.35,1.65,1.65,0,0,1-.63.13,1.7,1.7,0,0,1-.64-.13,1.54,1.54,0,0,1-.51-.35,1.64,1.64,0,0,1-.35-.52,1.64,1.64,0,0,1,0-1.28Z"/><path class="cls-1" d="M106.32,87.53a1.48,1.48,0,0,0,.45.54,1.81,1.81,0,0,0,.68.28,3.73,3.73,0,0,0,.84.09,2.32,2.32,0,0,0,.56-.07,2.13,2.13,0,0,0,.56-.23,1.47,1.47,0,0,0,.44-.42,1.06,1.06,0,0,0,.17-.6.9.9,0,0,0-.12-.48,1.3,1.3,0,0,0-.32-.34,2,2,0,0,0-.44-.22,3,3,0,0,0-.46-.14l-1.46-.36a5.05,5.05,0,0,1-.55-.18,1.51,1.51,0,0,1-.47-.3,1.45,1.45,0,0,1-.33-.44,1.6,1.6,0,0,1-.12-.65,2.09,2.09,0,0,1,.09-.56,1.69,1.69,0,0,1,.34-.61,2.33,2.33,0,0,1,.69-.48,2.84,2.84,0,0,1,1.13-.19,3.1,3.1,0,0,1,.92.13,2.14,2.14,0,0,1,.77.38,1.84,1.84,0,0,1,.53.64,1.87,1.87,0,0,1,.19.88h-.62a1.53,1.53,0,0,0-.17-.66,1.45,1.45,0,0,0-.39-.46,1.75,1.75,0,0,0-.56-.29,2.39,2.39,0,0,0-.66-.09,2.51,2.51,0,0,0-.62.07,1.43,1.43,0,0,0-.52.22,1.12,1.12,0,0,0-.36.39,1.29,1.29,0,0,0-.14.62.93.93,0,0,0,.08.39.78.78,0,0,0,.21.29,1,1,0,0,0,.32.19,2.11,2.11,0,0,0,.38.12l1.59.4a4.13,4.13,0,0,1,.65.22,2.05,2.05,0,0,1,.54.33,1.35,1.35,0,0,1,.37.48,1.6,1.6,0,0,1,.13.69c0,.07,0,.17,0,.29a1.66,1.66,0,0,1-.11.39,2.05,2.05,0,0,1-.25.41,1.39,1.39,0,0,1-.44.38,2.21,2.21,0,0,1-.69.28,4.64,4.64,0,0,1-2,0,2.32,2.32,0,0,1-.85-.41,1.7,1.7,0,0,1-.53-.7,2.22,2.22,0,0,1-.16-1h.62A1.8,1.8,0,0,0,106.32,87.53Z"/><path class="cls-1" d="M117.51,82.31v.53h-3.89V85.2h3.64v.53h-3.64V88.3h3.94v.53H113V82.31Z"/><path class="cls-1" d="M120.46,82.31v6.52h-.62V82.31Z"/><path class="cls-1" d="M127.67,82.31v.53h-2.28v6h-.62v-6H122.5v-.53Z"/><path class="cls-1" d="M135.2,88.83V84.68h-1.61v-1a2.81,2.81,0,0,0,.65,0,1.77,1.77,0,0,0,.57-.21,1.42,1.42,0,0,0,.42-.39,1.43,1.43,0,0,0,.23-.62h1v6.4Z"/><path class="cls-1" d="M141.19,87.75a.77.77,0,0,0,.57.23.85.85,0,0,0,.59-.2,1.64,1.64,0,0,0,.36-.5,2.65,2.65,0,0,0,.2-.64c0-.23.06-.43.08-.6l0,0a1.68,1.68,0,0,1-.62.55,2,2,0,0,1-.83.16,1.9,1.9,0,0,1-.8-.18,2,2,0,0,1-.67-.48,1.79,1.79,0,0,1-.37-.66,2.6,2.6,0,0,1,0-1.68,2.13,2.13,0,0,1,.45-.74,2.23,2.23,0,0,1,.71-.5,2.21,2.21,0,0,1,2.87.86,3.34,3.34,0,0,1,.4,1.07,6.78,6.78,0,0,1,.11,1.2,5.28,5.28,0,0,1-.14,1.18,3.46,3.46,0,0,1-.44,1.08,2.42,2.42,0,0,1-.78.78,2.19,2.19,0,0,1-1.16.29,2.43,2.43,0,0,1-.77-.11,2.13,2.13,0,0,1-.63-.34,1.85,1.85,0,0,1-.44-.56,2,2,0,0,1-.23-.75h1.23A1.12,1.12,0,0,0,141.19,87.75Zm1.1-2.09a.92.92,0,0,0,.32-.26,1,1,0,0,0,.19-.38,1.43,1.43,0,0,0,.07-.46,1.61,1.61,0,0,0-.07-.43,1.25,1.25,0,0,0-.2-.38.86.86,0,0,0-.33-.27.87.87,0,0,0-.44-.1.8.8,0,0,0-.41.1,1,1,0,0,0-.31.26,1.23,1.23,0,0,0-.19.38,1.54,1.54,0,0,0-.06.43,1.61,1.61,0,0,0,.06.44,1,1,0,0,0,.17.38.84.84,0,0,0,.31.28.85.85,0,0,0,.43.1A1.08,1.08,0,0,0,142.29,85.66Z"/><path class="cls-1" d="M148.11,88.83V84.68H146.5v-1a2.81,2.81,0,0,0,.65,0,1.77,1.77,0,0,0,.57-.21,1.33,1.33,0,0,0,.65-1h1v6.4Z"/><path class="cls-1" d="M152.74,83.87a2.59,2.59,0,0,1,.44-.82,2.05,2.05,0,0,1,.74-.55,2.48,2.48,0,0,1,1-.19,2.63,2.63,0,0,1,.84.13,2.32,2.32,0,0,1,.7.4,1.89,1.89,0,0,1,.48.63,2.26,2.26,0,0,1,0,1.67,2.39,2.39,0,0,1-.41.62,4,4,0,0,1-.58.49l-.66.43c-.22.14-.43.3-.64.46a3,3,0,0,0-.55.58h3v1.11h-4.7a2.54,2.54,0,0,1,.16-1,2.71,2.71,0,0,1,.43-.74,3.73,3.73,0,0,1,.65-.6l.78-.56.45-.29a3.79,3.79,0,0,0,.43-.34,1.86,1.86,0,0,0,.33-.41,1,1,0,0,0,.13-.52,1,1,0,0,0-.26-.73,1,1,0,0,0-.7-.26,1,1,0,0,0-.48.13,1,1,0,0,0-.31.35,1.44,1.44,0,0,0-.17.48,2.94,2.94,0,0,0,0,.51h-1.24A3.11,3.11,0,0,1,152.74,83.87Z"/></g></g></svg>
