<svg xmlns="http://www.w3.org/2000/svg" width="60" height="60"><path fill="#fff" d="M0 0h60v60H0z"/><path d="M36.676 14.095H23.324a2.335 2.335 0 0 0-2.335 2.335v27.145a2.335 2.335 0 0 0 2.335 2.335h13.352a2.335 2.335 0 0 0 2.335-2.335V16.43a2.335 2.335 0 0 0-2.335-2.335zm-14.627 4.244h15.9v20.149h-15.9zm1.276-3.185h13.351a1.276 1.276 0 0 1 1.273 1.276v.84h-15.9v-.84a1.276 1.276 0 0 1 1.276-1.276zm13.351 29.694H23.324a1.276 1.276 0 0 1-1.275-1.273v-4.029h15.9v4.029a1.276 1.276 0 0 1-1.276 1.276z" fill="#006833"/><path d="M30 43.255a1.091 1.091 0 1 1 1.091-1.091A1.091 1.091 0 0 1 30 43.255zM27.879 16.745h2.116a.535.535 0 0 0 .535-.535.524.524 0 0 0-.535-.524h-2.116a.524.524 0 0 0-.535.524.535.535 0 0 0 .535.535zM31.637 16.745h.524a.535.535 0 0 0 .531-.538.524.524 0 0 0-.535-.524h-.524a.524.524 0 0 0-.535.524.535.535 0 0 0 .535.535z" fill="#006833"/></svg>