<svg xmlns="http://www.w3.org/2000/svg" width="61.931" height="11.997" preserveAspectRatio="xMinYMid"><path d="M4.851 1.888c-.726 0-.944.32-.944 1.031V4.1h1.946l-.189 1.913H3.907v5.8H1.569v-5.8H0V4.11h1.569V2.963C1.569 1.017 2.353 0 4.517 0a10.771 10.771 0 0 1 1.365.087v1.8M6.013 7.712c0-2.15 1.017-3.776 3.166-3.776a2.3 2.3 0 0 1 2.219 1.351V4.11h2.24v7.712h-2.252v-1.161a2.271 2.271 0 0 1-2.222 1.322c-2.135 0-3.166-1.612-3.166-3.776m2.353.029c0 1.147.421 1.917 1.511 1.917.959 0 1.438-.7 1.438-1.8v-.784c0-1.1-.494-1.8-1.438-1.8-1.089 0-1.511.755-1.511 1.917zM18.49 3.936a4.171 4.171 0 0 1 2.237.523l-.523 1.656a3.576 3.576 0 0 0-1.554-.349c-1.264 0-1.816.726-1.816 1.975v.45c0 1.249.552 1.975 1.816 1.975a3.59 3.59 0 0 0 1.554-.363l.523 1.656a4.271 4.271 0 0 1-2.237.523c-2.745 0-3.98-1.467-3.98-3.834v-.363c0-2.367 1.235-3.849 3.98-3.849M21.031 8.25v-.683c0-2.193 1.249-3.631 3.791-3.631 2.4 0 3.457 1.452 3.457 3.6v1.235H23.37c.044 1.06.523 1.525 1.816 1.525a6.971 6.971 0 0 0 2.483-.46l.421 1.6a7.556 7.556 0 0 1-2.992.566c-2.963-.015-4.067-1.481-4.067-3.747m2.338-1.017h2.818v-.189c0-.842-.334-1.511-1.365-1.511s-1.452.668-1.452 1.7M36.934 8.206c0 2.15-1.031 3.776-3.181 3.776a2.381 2.381 0 0 1-2.295-1.322v1.162h-2.207V.229l2.338-.2v5.156a2.327 2.327 0 0 1 2.179-1.235c2.135 0 3.181 1.612 3.181 3.776m-2.353-.058c0-1.089-.421-1.9-1.54-1.9-.959 0-1.467.683-1.467 1.786v.813c0 1.1.523 1.786 1.467 1.786 1.118 0 1.54-.813 1.54-1.9v-.584zM37.704 8.148v-.392a3.834 3.834 0 0 1 7.669 0v.392a3.834 3.834 0 0 1-7.669 0m5.345-.552c0-1.017-.421-1.83-1.511-1.83s-1.51.813-1.51 1.83v.726c0 1.017.421 1.83 1.51 1.83s1.511-.813 1.511-1.83zM46.172 8.148v-.392a3.834 3.834 0 0 1 7.669 0v.392a3.834 3.834 0 0 1-7.669 0m5.345-.552c0-1.017-.421-1.83-1.511-1.83s-1.51.813-1.51 1.83v.726c0 1.017.421 1.83 1.51 1.83s1.511-.813 1.511-1.83zM57.051 7.785l2.309-3.689h2.467l-2.409 3.819 2.509 3.908h-2.48l-2.4-3.776v3.776h-2.32V.233l2.324-.218" fill="#fff"/></svg>
