<svg xmlns="http://www.w3.org/2000/svg" viewBox="0 0 157.17 90"><g data-name="Ebene 2"><g data-name="Ebene 1"><path d="M38.31 43.56a2.36 2.36 0 0 1-2.4-2.24 2.38 2.38 0 0 1 4.76 0 2.34 2.34 0 0 1-2.36 2.2m7 0a2.35 2.35 0 0 1-2.37-2.2 2.39 2.39 0 1 1 2.37 2.2m-3.44 7.18c-3.07 0-3.64 3.3-3.64 9.3s.57 9.3 3.64 9.3 3.64-3.45 3.64-9.3-.51-9.3-3.64-9.3m0 23.54c-8.86 0-10-8.66-10-14.22 0-5.3 1-14.27 10-14.27 8.78 0 10 8.51 10 14.27 0 5.06-.91 14.22-10 14.22M62.37 50.65v6.67h1.95c1.65 0 4.42 0 4.42-3.44 0-3.23-2.77-3.23-4-3.23h-2.4m0 11.16v7.25h3c2.61 0 4.14-.91 4.14-3.64 0-3.61-2.81-3.61-4.19-3.61h-2.92m3.55 12h-9.39V46.18h9.39c2.74 0 5.85 0 7.54 2.36a8.27 8.27 0 0 1 1.45 4.93c0 4.44-2.64 5.43-3.93 5.93a5.94 5.94 0 0 1 2.77 1.7 7.27 7.27 0 0 1 1.91 5.06c0 2.41-1 5.19-3 6.38s-4.22 1.29-6.72 1.29M99.68 73.83h-6.25L88.54 61.1l-2.27 3.36v9.37h-6.05V46.18h6.05V57.7l6.71-11.52h6.13l-6.92 10.15 7.49 17.5zM103.32 46.18h6.04v27.65h-6.04zM133.31 73.83h-5.43l-8.41-20.03v20.03h-4.72V46.18h6.75l7.09 17.16V46.18h4.72v27.65zM147.1 74.24c-6.88 0-10.23-6.14-10.23-13.76 0-4.1.91-14.72 10.77-14.72 7.66 0 9 5.47 9.52 9.45l-5.47.92c-.28-2.08-.7-5.43-3.93-5.43-3.44 0-4.51 3.73-4.51 9.41 0 5 .74 9.21 4.72 9.21 3.51 0 3.65-3.7 3.72-5.48h-4.13v-4.77h9.6v14.76h-2.57l-.78-3.15a7.41 7.41 0 0 1-6.71 3.56M91.35 34.05H0v-3.02h90.91l.44 3.02zM156.85 34.05h-34.22l.44-3.02h33.78v3.02z" fill="#006833"/><path fill="#72ae25" d="M112.06 22.36l-5.07-14.72-5.06 14.72L88.99 0l4.94 34.11h26.12L124.99 0l-12.93 22.36z"/><path fill="#006833" d="M24.07 73.83h-5.39l-3.66-19.12-3.74 19.12H5.92L0 46.18h6.13l2.89 19.04 3.62-19.04h5.51l3.37 19.07 3.39-19.07h5.05l-5.89 27.65zM1.29 83.67a1.94 1.94 0 0 0 .63-.18 1.16 1.16 0 0 0 .45-.43 2.09 2.09 0 0 0 .25-.81h.55v7.6h-.68v-5.64h-2v-.49zM11.46 82.55a2.49 2.49 0 0 1 .8.93 4 4 0 0 1 .39 1.26 9 9 0 0 1 .1 1.35 9.12 9.12 0 0 1-.1 1.37 4.22 4.22 0 0 1-.39 1.26 2.53 2.53 0 0 1-.8.92 2.34 2.34 0 0 1-1.35.36 2.34 2.34 0 0 1-1.35-.36 2.47 2.47 0 0 1-.76-.92 4.22 4.22 0 0 1-.39-1.26 9.08 9.08 0 0 1-.1-1.36 9 9 0 0 1 .1-1.36A4 4 0 0 1 8 83.48a2.42 2.42 0 0 1 .81-.93 2.34 2.34 0 0 1 1.35-.36 2.34 2.34 0 0 1 1.3.36zm-2.4.55a2.17 2.17 0 0 0-.59.83A4.24 4.24 0 0 0 8.21 85a8.29 8.29 0 0 0 0 2.15 4.24 4.24 0 0 0 .26 1.09 2.29 2.29 0 0 0 .59.84 1.57 1.57 0 0 0 1 .33 1.56 1.56 0 0 0 1-.33 2.29 2.29 0 0 0 .59-.84 4.24 4.24 0 0 0 .35-1.07A8.29 8.29 0 0 0 12 85a4.24 4.24 0 0 0-.26-1.09 2.17 2.17 0 0 0-.59-.83 1.52 1.52 0 0 0-1-.34 1.53 1.53 0 0 0-1.09.36zM19.11 82.55a2.51 2.51 0 0 1 .81.93 4 4 0 0 1 .39 1.26 10.48 10.48 0 0 1 .1 1.35 10.65 10.65 0 0 1-.1 1.37 4.22 4.22 0 0 1-.39 1.26 2.56 2.56 0 0 1-.81.92 2.29 2.29 0 0 1-1.35.36 2.3 2.3 0 0 1-1.34-.36 2.47 2.47 0 0 1-.81-.92 4.22 4.22 0 0 1-.39-1.26 9.08 9.08 0 0 1-.1-1.36 9 9 0 0 1 .1-1.36 4 4 0 0 1 .39-1.26 2.42 2.42 0 0 1 .81-.93 2.3 2.3 0 0 1 1.34-.36 2.29 2.29 0 0 1 1.35.36zm-2.39.55a2.07 2.07 0 0 0-.59.83 4.7 4.7 0 0 0-.27 1.07 9.66 9.66 0 0 0 0 2.15 4.7 4.7 0 0 0 .27 1.09 2.17 2.17 0 0 0 .59.84 1.56 1.56 0 0 0 1 .33 1.54 1.54 0 0 0 1-.33 2.31 2.31 0 0 0 .6-.84 4.24 4.24 0 0 0 .26-1.09 10.82 10.82 0 0 0 .07-1.08c0-.32 0-.68-.07-1.07a4.24 4.24 0 0 0-.26-1.09 2.19 2.19 0 0 0-.6-.83 1.5 1.5 0 0 0-1-.34 1.52 1.52 0 0 0-1 .36zM31.69 82.1v5.59a3.94 3.94 0 0 1-.12 1 1.67 1.67 0 0 1-.38.71 1.7 1.7 0 0 1-.7.43 3.54 3.54 0 0 1-1.06.14 2.28 2.28 0 0 1-1.08-.23 1.7 1.7 0 0 1-.66-.58 2.24 2.24 0 0 1-.33-.84 6.4 6.4 0 0 1-.08-1H28v.6a1.87 1.87 0 0 0 .15.66 1.23 1.23 0 0 0 .43.54 1.51 1.51 0 0 0 .87.22 2.1 2.1 0 0 0 .72-.11 1 1 0 0 0 .44-.36 1.73 1.73 0 0 0 .23-.63 5.84 5.84 0 0 0 .06-.91V82.1zM38 82.1l3 7.75h-.79l-.95-2.41h-3.51l-.94 2.41H34l3.12-7.75zm1 4.71l-1.49-4-1.55 4zM44.08 82.1v3.36h4.6V82.1h.73v7.75h-.73v-3.76h-4.6v3.76h-.74V82.1zM56.15 82.1a3.39 3.39 0 0 1 .91.12 2.22 2.22 0 0 1 .74.36 1.73 1.73 0 0 1 .51.63 2 2 0 0 1 .19.91 2.13 2.13 0 0 1-.38 1.28 1.7 1.7 0 0 1-1.12.69 2 2 0 0 1 .63.2 1.32 1.32 0 0 1 .4.38 1.53 1.53 0 0 1 .23.52 3.29 3.29 0 0 1 .09.65v.48c0 .19 0 .38.05.57a3 3 0 0 0 .1.54 1.15 1.15 0 0 0 .19.4h-.79a1.09 1.09 0 0 1-.11-.27 3.26 3.26 0 0 1 0-.33v-.33-.28c0-.27 0-.55-.07-.82a2 2 0 0 0-.21-.72 1.2 1.2 0 0 0-.45-.52 1.34 1.34 0 0 0-.82-.17h-2.8v3.44h-.84V82.1zm0 3.68a2 2 0 0 0 .64-.11 1.42 1.42 0 0 0 .89-.77 1.39 1.39 0 0 0 .14-.63 1.52 1.52 0 0 0-.42-1.13 1.71 1.71 0 0 0-1.25-.41h-2.81v3zM66.81 82.1v.63H62.2v2.8h4.32v.63H62.2v3.06h4.67v.63h-5.41V82.1z"/><path d="M74.32 85.22a1.87 1.87 0 0 1 .41-.61 2 2 0 0 1 .61-.42 1.94 1.94 0 0 1 .76-.19 1.9 1.9 0 0 1 .75.15 2.06 2.06 0 0 1 .62.42 1.75 1.75 0 0 1 .42.61A1.9 1.9 0 0 1 78 86a1.94 1.94 0 0 1-.15.76 2 2 0 0 1-.42.62 2 2 0 0 1-.62.41 1.9 1.9 0 0 1-.75.15 1.94 1.94 0 0 1-.76-.15 2 2 0 0 1-.61-.41 2.16 2.16 0 0 1-.41-.62 1.94 1.94 0 0 1-.15-.76 1.9 1.9 0 0 1 .19-.78z" fill="#72ae25"/><path d="M86.39 88.29a1.61 1.61 0 0 0 .54.64 2.29 2.29 0 0 0 .81.35 5.19 5.19 0 0 0 1 .1 2.75 2.75 0 0 0 .67-.09 2.55 2.55 0 0 0 .66-.27 1.74 1.74 0 0 0 .52-.49 1.22 1.22 0 0 0 .2-.72 1 1 0 0 0-.14-.57 1.45 1.45 0 0 0-.38-.4 2.33 2.33 0 0 0-.52-.27 5.7 5.7 0 0 0-.55-.16L87.47 86a4.62 4.62 0 0 1-.66-.21 2.12 2.12 0 0 1-.56-.35 1.47 1.47 0 0 1-.38-.53 1.79 1.79 0 0 1-.15-.77 2.52 2.52 0 0 1 .11-.66 1.84 1.84 0 0 1 .4-.72 2.59 2.59 0 0 1 .82-.57 3.43 3.43 0 0 1 1.34-.23 3.88 3.88 0 0 1 1.09.15 2.52 2.52 0 0 1 .91.46 2.3 2.3 0 0 1 .63.75 2.32 2.32 0 0 1 .23 1h-.74a1.73 1.73 0 0 0-.2-.78 1.76 1.76 0 0 0-.46-.55 2.23 2.23 0 0 0-.67-.34 2.49 2.49 0 0 0-.78-.11 2.87 2.87 0 0 0-.73.08 1.73 1.73 0 0 0-.62.26 1.39 1.39 0 0 0-.43.47 1.49 1.49 0 0 0-.16.73 1.13 1.13 0 0 0 .09.47 1.07 1.07 0 0 0 .25.34 1.6 1.6 0 0 0 .38.23 3 3 0 0 0 .45.14l1.89.47a5.8 5.8 0 0 1 .77.26 2.87 2.87 0 0 1 .64.39 1.59 1.59 0 0 1 .43.57 1.88 1.88 0 0 1 .16.82v.34a1.72 1.72 0 0 1-.14.46 1.85 1.85 0 0 1-.29.5 2 2 0 0 1-.52.45 3 3 0 0 1-.82.32 4.39 4.39 0 0 1-1.17.13 5.13 5.13 0 0 1-1.27-.16 3 3 0 0 1-1-.48 2.22 2.22 0 0 1-.63-.84 2.73 2.73 0 0 1-.19-1.22h.74a2.11 2.11 0 0 0 .16 1.02zM95.11 82.1v7.75h-.74V82.1zM99.17 82.1l4.51 6.55V82.1h.74v7.75h-.82l-4.5-6.56v6.56h-.74V82.1zM113 83.65a2 2 0 0 0-.54-.59 2.41 2.41 0 0 0-.71-.37 2.64 2.64 0 0 0-.81-.12 2.74 2.74 0 0 0-1.32.29 2.52 2.52 0 0 0-.9.78 3.14 3.14 0 0 0-.52 1.09 4.61 4.61 0 0 0 0 2.48 3.19 3.19 0 0 0 .52 1.1 2.63 2.63 0 0 0 .9.78 2.86 2.86 0 0 0 1.32.29 2.35 2.35 0 0 0 1-.2 2.22 2.22 0 0 0 .75-.53 2.63 2.63 0 0 0 .51-.78 3.46 3.46 0 0 0 .25-1h.74a4.37 4.37 0 0 1-.34 1.29 3.23 3.23 0 0 1-.67 1 2.83 2.83 0 0 1-1 .62 3.56 3.56 0 0 1-1.25.22 3.61 3.61 0 0 1-1.59-.33 3.29 3.29 0 0 1-1.15-.89 3.74 3.74 0 0 1-.68-1.28 5.1 5.1 0 0 1-.23-1.53 5.2 5.2 0 0 1 .23-1.53 3.84 3.84 0 0 1 .68-1.28 3.29 3.29 0 0 1 1.15-.89 3.61 3.61 0 0 1 1.59-.33 3.58 3.58 0 0 1 1.08.16 3.32 3.32 0 0 1 1 .48 3 3 0 0 1 .71.79 2.53 2.53 0 0 1 .37 1.07h-.74a2.3 2.3 0 0 0-.35-.79zM122.23 82.1v.63h-4.61v2.8h4.32v.63h-4.32v3.06h4.66v.63h-5.4V82.1zM130.66 83.67a1.94 1.94 0 0 0 .63-.18 1.16 1.16 0 0 0 .45-.43 2.09 2.09 0 0 0 .25-.81h.55v7.6h-.68v-5.64h-2v-.49zM138.2 89a1.52 1.52 0 0 0 1.08.39 1.66 1.66 0 0 0 1.08-.33 2.33 2.33 0 0 0 .63-.85 3.67 3.67 0 0 0 .31-1.1 8.7 8.7 0 0 0 .07-1.11 2.26 2.26 0 0 1-2 1.26 2.9 2.9 0 0 1-1-.19 2.27 2.27 0 0 1-1.37-1.29 2.8 2.8 0 0 1-.18-1 2.7 2.7 0 0 1 .19-1 2.47 2.47 0 0 1 .53-.81 2.5 2.5 0 0 1 .81-.54 2.71 2.71 0 0 1 1-.19 3.05 3.05 0 0 1 1.19.21 1.85 1.85 0 0 1 .83.69 3.57 3.57 0 0 1 .48 1.26 9.79 9.79 0 0 1 .16 1.87v.6a6.34 6.34 0 0 1-.12.79 5.91 5.91 0 0 1-.28.84 2.77 2.77 0 0 1-.48.77 2.2 2.2 0 0 1-.74.56 2.82 2.82 0 0 1-2.68-.27A2.12 2.12 0 0 1 137 88h.69a1.6 1.6 0 0 0 .51 1zm1.94-2.48a1.63 1.63 0 0 0 .6-.42 2 2 0 0 0 .37-.64 2.47 2.47 0 0 0 .12-.79 2.37 2.37 0 0 0-.11-.76 1.57 1.57 0 0 0-.34-.62 1.62 1.62 0 0 0-.59-.42 2.21 2.21 0 0 0-.86-.15 1.63 1.63 0 0 0-.73.16 1.77 1.77 0 0 0-.58.42 1.83 1.83 0 0 0-.38.63 2.31 2.31 0 0 0 0 1.53 1.83 1.83 0 0 0 .36.64 1.51 1.51 0 0 0 .57.42 1.78 1.78 0 0 0 .78.16 1.83 1.83 0 0 0 .79-.12zM146 83.67a1.94 1.94 0 0 0 .63-.18 1.2 1.2 0 0 0 .44-.43 2.08 2.08 0 0 0 .26-.81h.55v7.6h-.68v-5.64h-2v-.49zM152.17 89.85a2.58 2.58 0 0 1 .19-1 2.86 2.86 0 0 1 .49-.78 4.13 4.13 0 0 1 .68-.64l.78-.55.8-.54a6 6 0 0 0 .71-.59 2.27 2.27 0 0 0 .47-.65 1.74 1.74 0 0 0 .16-.79 1.51 1.51 0 0 0-.13-.65 1.67 1.67 0 0 0-.37-.49 1.55 1.55 0 0 0-.55-.3 2 2 0 0 0-.65-.11 1.66 1.66 0 0 0-.8.18 1.51 1.51 0 0 0-.54.46 2.13 2.13 0 0 0-.29.67 3.1 3.1 0 0 0-.09.81h-.68a3.4 3.4 0 0 1 .14-1.08 2.11 2.11 0 0 1 .45-.85 2 2 0 0 1 .76-.56 2.6 2.6 0 0 1 1.08-.2 3.12 3.12 0 0 1 .93.13 2.46 2.46 0 0 1 .75.4 1.87 1.87 0 0 1 .5.67 2.45 2.45 0 0 1 .17.93 2.41 2.41 0 0 1-.15.87 2.92 2.92 0 0 1-.43.72 4.25 4.25 0 0 1-.6.6 7.21 7.21 0 0 1-.72.51c-.19.13-.4.26-.65.41a6.54 6.54 0 0 0-.71.5 4.18 4.18 0 0 0-.6.59 1.45 1.45 0 0 0-.32.7h4.22v.63z" fill="#006833"/></g></g></svg>